<mxfile host="Electron" modified="2023-11-11T16:49:44.523Z" agent="Mozilla/5.0 (Macintosh; Intel Mac OS X 10_15_7) AppleWebKit/537.36 (KHTML, like Gecko) draw.io/22.0.3 Chrome/114.0.5735.289 Electron/25.8.4 Safari/537.36" etag="d1MRx6gJgnra95LXcCPR" version="22.0.3" type="device">
  <diagram name="Page-1" id="iuFCybov5DHdMsMzFZ86">
    <mxGraphModel dx="1266" dy="688" grid="1" gridSize="10" guides="1" tooltips="1" connect="1" arrows="1" fold="1" page="1" pageScale="1" pageWidth="1100" pageHeight="1700" math="0" shadow="0">
      <root>
        <mxCell id="0" />
        <mxCell id="1" parent="0" />
        <mxCell id="59fSgQZAnHeGbvJs79OD-3" value="" style="rounded=0;orthogonalLoop=1;jettySize=auto;html=1;endArrow=none;endFill=0;" parent="1" source="59fSgQZAnHeGbvJs79OD-1" target="59fSgQZAnHeGbvJs79OD-2" edge="1">
          <mxGeometry relative="1" as="geometry" />
        </mxCell>
        <mxCell id="59fSgQZAnHeGbvJs79OD-5" value="" style="edgeStyle=none;shape=connector;rounded=0;orthogonalLoop=1;jettySize=auto;html=1;labelBackgroundColor=default;strokeColor=default;align=center;verticalAlign=middle;fontFamily=Helvetica;fontSize=11;fontColor=default;endArrow=none;endFill=0;" parent="1" source="59fSgQZAnHeGbvJs79OD-1" target="59fSgQZAnHeGbvJs79OD-4" edge="1">
          <mxGeometry relative="1" as="geometry" />
        </mxCell>
        <mxCell id="59fSgQZAnHeGbvJs79OD-1" value="8" style="ellipse;whiteSpace=wrap;html=1;aspect=fixed;" parent="1" vertex="1">
          <mxGeometry x="540" y="320" width="80" height="80" as="geometry" />
        </mxCell>
        <mxCell id="59fSgQZAnHeGbvJs79OD-2" value="3" style="whiteSpace=wrap;html=1;" parent="1" vertex="1">
          <mxGeometry x="480" y="430" width="60" height="40" as="geometry" />
        </mxCell>
        <mxCell id="59fSgQZAnHeGbvJs79OD-9" value="" style="edgeStyle=none;shape=connector;rounded=0;orthogonalLoop=1;jettySize=auto;html=1;labelBackgroundColor=default;strokeColor=default;align=center;verticalAlign=middle;fontFamily=Helvetica;fontSize=12;fontColor=default;endArrow=none;endFill=0;" parent="1" source="59fSgQZAnHeGbvJs79OD-4" target="59fSgQZAnHeGbvJs79OD-8" edge="1">
          <mxGeometry relative="1" as="geometry" />
        </mxCell>
        <mxCell id="59fSgQZAnHeGbvJs79OD-17" value="" style="edgeStyle=none;shape=connector;rounded=0;orthogonalLoop=1;jettySize=auto;html=1;labelBackgroundColor=default;strokeColor=default;align=center;verticalAlign=middle;fontFamily=Helvetica;fontSize=12;fontColor=default;endArrow=none;endFill=0;" parent="1" source="59fSgQZAnHeGbvJs79OD-4" target="59fSgQZAnHeGbvJs79OD-16" edge="1">
          <mxGeometry relative="1" as="geometry" />
        </mxCell>
        <mxCell id="59fSgQZAnHeGbvJs79OD-4" value="5" style="ellipse;whiteSpace=wrap;html=1;aspect=fixed;" parent="1" vertex="1">
          <mxGeometry x="610" y="410" width="80" height="80" as="geometry" />
        </mxCell>
        <mxCell id="59fSgQZAnHeGbvJs79OD-8" value="2" style="whiteSpace=wrap;html=1;" parent="1" vertex="1">
          <mxGeometry x="550" y="520" width="60" height="50" as="geometry" />
        </mxCell>
        <mxCell id="59fSgQZAnHeGbvJs79OD-10" value="0" style="text;html=1;strokeColor=none;fillColor=none;align=center;verticalAlign=middle;whiteSpace=wrap;rounded=0;fontSize=12;fontFamily=Helvetica;fontColor=default;" parent="1" vertex="1">
          <mxGeometry x="500" y="390" width="60" height="30" as="geometry" />
        </mxCell>
        <mxCell id="59fSgQZAnHeGbvJs79OD-11" value="1" style="text;html=1;strokeColor=none;fillColor=none;align=center;verticalAlign=middle;whiteSpace=wrap;rounded=0;fontSize=12;fontFamily=Helvetica;fontColor=default;" parent="1" vertex="1">
          <mxGeometry x="600" y="380" width="60" height="30" as="geometry" />
        </mxCell>
        <mxCell id="59fSgQZAnHeGbvJs79OD-12" value="a" style="text;html=1;strokeColor=none;fillColor=none;align=center;verticalAlign=middle;whiteSpace=wrap;rounded=0;fontSize=12;fontFamily=Helvetica;fontColor=default;" parent="1" vertex="1">
          <mxGeometry x="430" y="435" width="60" height="30" as="geometry" />
        </mxCell>
        <mxCell id="59fSgQZAnHeGbvJs79OD-13" value="r" style="text;html=1;strokeColor=none;fillColor=none;align=center;verticalAlign=middle;whiteSpace=wrap;rounded=0;fontSize=12;fontFamily=Helvetica;fontColor=default;" parent="1" vertex="1">
          <mxGeometry x="500" y="530" width="60" height="30" as="geometry" />
        </mxCell>
        <mxCell id="59fSgQZAnHeGbvJs79OD-21" value="" style="edgeStyle=none;shape=connector;rounded=0;orthogonalLoop=1;jettySize=auto;html=1;labelBackgroundColor=default;strokeColor=default;align=center;verticalAlign=middle;fontFamily=Helvetica;fontSize=12;fontColor=default;endArrow=none;endFill=0;" parent="1" source="59fSgQZAnHeGbvJs79OD-16" target="59fSgQZAnHeGbvJs79OD-20" edge="1">
          <mxGeometry relative="1" as="geometry" />
        </mxCell>
        <mxCell id="59fSgQZAnHeGbvJs79OD-23" value="" style="edgeStyle=none;shape=connector;rounded=0;orthogonalLoop=1;jettySize=auto;html=1;labelBackgroundColor=default;strokeColor=default;align=center;verticalAlign=middle;fontFamily=Helvetica;fontSize=12;fontColor=default;endArrow=none;endFill=0;" parent="1" source="59fSgQZAnHeGbvJs79OD-16" target="59fSgQZAnHeGbvJs79OD-22" edge="1">
          <mxGeometry relative="1" as="geometry" />
        </mxCell>
        <mxCell id="59fSgQZAnHeGbvJs79OD-16" value="3" style="ellipse;whiteSpace=wrap;html=1;aspect=fixed;" parent="1" vertex="1">
          <mxGeometry x="660" y="505" width="80" height="80" as="geometry" />
        </mxCell>
        <mxCell id="59fSgQZAnHeGbvJs79OD-18" value="0" style="text;html=1;strokeColor=none;fillColor=none;align=center;verticalAlign=middle;whiteSpace=wrap;rounded=0;fontSize=12;fontFamily=Helvetica;fontColor=default;" parent="1" vertex="1">
          <mxGeometry x="570" y="470" width="60" height="30" as="geometry" />
        </mxCell>
        <mxCell id="59fSgQZAnHeGbvJs79OD-19" value="1" style="text;html=1;strokeColor=none;fillColor=none;align=center;verticalAlign=middle;whiteSpace=wrap;rounded=0;fontSize=12;fontFamily=Helvetica;fontColor=default;" parent="1" vertex="1">
          <mxGeometry x="660" y="470" width="60" height="30" as="geometry" />
        </mxCell>
        <mxCell id="59fSgQZAnHeGbvJs79OD-25" value="" style="edgeStyle=none;shape=connector;rounded=0;orthogonalLoop=1;jettySize=auto;html=1;labelBackgroundColor=default;strokeColor=default;align=center;verticalAlign=middle;fontFamily=Helvetica;fontSize=12;fontColor=default;endArrow=none;endFill=0;" parent="1" source="59fSgQZAnHeGbvJs79OD-20" target="59fSgQZAnHeGbvJs79OD-24" edge="1">
          <mxGeometry relative="1" as="geometry" />
        </mxCell>
        <mxCell id="59fSgQZAnHeGbvJs79OD-27" value="" style="edgeStyle=none;shape=connector;rounded=0;orthogonalLoop=1;jettySize=auto;html=1;labelBackgroundColor=default;strokeColor=default;align=center;verticalAlign=middle;fontFamily=Helvetica;fontSize=12;fontColor=default;endArrow=none;endFill=0;" parent="1" source="59fSgQZAnHeGbvJs79OD-20" target="59fSgQZAnHeGbvJs79OD-26" edge="1">
          <mxGeometry relative="1" as="geometry" />
        </mxCell>
        <mxCell id="59fSgQZAnHeGbvJs79OD-20" value="2" style="ellipse;whiteSpace=wrap;html=1;aspect=fixed;" parent="1" vertex="1">
          <mxGeometry x="470" y="590" width="80" height="80" as="geometry" />
        </mxCell>
        <mxCell id="59fSgQZAnHeGbvJs79OD-22" value="1" style="whiteSpace=wrap;html=1;" parent="1" vertex="1">
          <mxGeometry x="740" y="612.5" width="60" height="35" as="geometry" />
        </mxCell>
        <mxCell id="59fSgQZAnHeGbvJs79OD-24" value="1" style="whiteSpace=wrap;html=1;" parent="1" vertex="1">
          <mxGeometry x="740" y="670" width="60" height="40" as="geometry" />
        </mxCell>
        <mxCell id="59fSgQZAnHeGbvJs79OD-35" value="" style="edgeStyle=none;shape=connector;rounded=0;orthogonalLoop=1;jettySize=auto;html=1;labelBackgroundColor=default;strokeColor=default;align=center;verticalAlign=middle;fontFamily=Helvetica;fontSize=12;fontColor=default;endArrow=none;endFill=0;" parent="1" source="59fSgQZAnHeGbvJs79OD-26" target="59fSgQZAnHeGbvJs79OD-34" edge="1">
          <mxGeometry relative="1" as="geometry" />
        </mxCell>
        <mxCell id="59fSgQZAnHeGbvJs79OD-36" value="" style="edgeStyle=none;shape=connector;rounded=0;orthogonalLoop=1;jettySize=auto;html=1;labelBackgroundColor=default;strokeColor=default;align=center;verticalAlign=middle;fontFamily=Helvetica;fontSize=12;fontColor=default;endArrow=none;endFill=0;" parent="1" source="59fSgQZAnHeGbvJs79OD-26" target="59fSgQZAnHeGbvJs79OD-34" edge="1">
          <mxGeometry relative="1" as="geometry" />
        </mxCell>
        <mxCell id="59fSgQZAnHeGbvJs79OD-40" value="" style="edgeStyle=none;shape=connector;rounded=0;orthogonalLoop=1;jettySize=auto;html=1;labelBackgroundColor=default;strokeColor=default;align=center;verticalAlign=middle;fontFamily=Helvetica;fontSize=12;fontColor=default;endArrow=none;endFill=0;" parent="1" source="59fSgQZAnHeGbvJs79OD-26" target="59fSgQZAnHeGbvJs79OD-39" edge="1">
          <mxGeometry relative="1" as="geometry" />
        </mxCell>
        <mxCell id="59fSgQZAnHeGbvJs79OD-26" value="1" style="ellipse;whiteSpace=wrap;html=1;aspect=fixed;" parent="1" vertex="1">
          <mxGeometry x="370" y="650" width="80" height="80" as="geometry" />
        </mxCell>
        <mxCell id="59fSgQZAnHeGbvJs79OD-28" value="0" style="text;html=1;strokeColor=none;fillColor=none;align=center;verticalAlign=middle;whiteSpace=wrap;rounded=0;fontSize=12;fontFamily=Helvetica;fontColor=default;" parent="1" vertex="1">
          <mxGeometry x="610" y="540" width="60" height="30" as="geometry" />
        </mxCell>
        <mxCell id="59fSgQZAnHeGbvJs79OD-29" value="1" style="text;html=1;strokeColor=none;fillColor=none;align=center;verticalAlign=middle;whiteSpace=wrap;rounded=0;fontSize=12;fontFamily=Helvetica;fontColor=default;" parent="1" vertex="1">
          <mxGeometry x="710" y="560" width="60" height="30" as="geometry" />
        </mxCell>
        <mxCell id="59fSgQZAnHeGbvJs79OD-30" value="1" style="text;html=1;strokeColor=none;fillColor=none;align=center;verticalAlign=middle;whiteSpace=wrap;rounded=0;fontSize=12;fontFamily=Helvetica;fontColor=default;" parent="1" vertex="1">
          <mxGeometry x="540" y="615" width="60" height="30" as="geometry" />
        </mxCell>
        <mxCell id="59fSgQZAnHeGbvJs79OD-31" value="0" style="text;html=1;strokeColor=none;fillColor=none;align=center;verticalAlign=middle;whiteSpace=wrap;rounded=0;fontSize=12;fontFamily=Helvetica;fontColor=default;" parent="1" vertex="1">
          <mxGeometry x="420" y="630" width="60" height="30" as="geometry" />
        </mxCell>
        <mxCell id="59fSgQZAnHeGbvJs79OD-34" value="0" style="whiteSpace=wrap;html=1;" parent="1" vertex="1">
          <mxGeometry x="270" y="730" width="60" height="40" as="geometry" />
        </mxCell>
        <mxCell id="59fSgQZAnHeGbvJs79OD-39" value="1" style="whiteSpace=wrap;html=1;" parent="1" vertex="1">
          <mxGeometry x="480" y="730" width="60" height="40" as="geometry" />
        </mxCell>
        <mxCell id="59fSgQZAnHeGbvJs79OD-41" value="NYT" style="text;html=1;strokeColor=none;fillColor=none;align=center;verticalAlign=middle;whiteSpace=wrap;rounded=0;fontSize=12;fontFamily=Helvetica;fontColor=default;" parent="1" vertex="1">
          <mxGeometry x="330" y="735" width="60" height="30" as="geometry" />
        </mxCell>
        <mxCell id="59fSgQZAnHeGbvJs79OD-42" value="k" style="text;html=1;strokeColor=none;fillColor=none;align=center;verticalAlign=middle;whiteSpace=wrap;rounded=0;fontSize=12;fontFamily=Helvetica;fontColor=default;" parent="1" vertex="1">
          <mxGeometry x="430" y="735" width="60" height="30" as="geometry" />
        </mxCell>
        <mxCell id="59fSgQZAnHeGbvJs79OD-43" value="v" style="text;html=1;strokeColor=none;fillColor=none;align=center;verticalAlign=middle;whiteSpace=wrap;rounded=0;fontSize=12;fontFamily=Helvetica;fontColor=default;" parent="1" vertex="1">
          <mxGeometry x="690" y="675" width="60" height="30" as="geometry" />
        </mxCell>
        <mxCell id="59fSgQZAnHeGbvJs79OD-44" value="d" style="text;html=1;strokeColor=none;fillColor=none;align=center;verticalAlign=middle;whiteSpace=wrap;rounded=0;fontSize=12;fontFamily=Helvetica;fontColor=default;" parent="1" vertex="1">
          <mxGeometry x="690" y="615" width="60" height="30" as="geometry" />
        </mxCell>
        <mxCell id="59fSgQZAnHeGbvJs79OD-45" value="0" style="text;html=1;strokeColor=none;fillColor=none;align=center;verticalAlign=middle;whiteSpace=wrap;rounded=0;fontSize=12;fontFamily=Helvetica;fontColor=default;" parent="1" vertex="1">
          <mxGeometry x="320" y="690" width="60" height="30" as="geometry" />
        </mxCell>
        <mxCell id="59fSgQZAnHeGbvJs79OD-46" value="1" style="text;html=1;strokeColor=none;fillColor=none;align=center;verticalAlign=middle;whiteSpace=wrap;rounded=0;fontSize=12;fontFamily=Helvetica;fontColor=default;" parent="1" vertex="1">
          <mxGeometry x="430" y="690" width="60" height="30" as="geometry" />
        </mxCell>
      </root>
    </mxGraphModel>
  </diagram>
</mxfile>
